<?xml version="1.0" encoding="utf-8"?>
<!-- Generator: Adobe Illustrator 15.1.0, SVG Export Plug-In . SVG Version: 6.00 Build 0)  -->
<!DOCTYPE svg PUBLIC "-//W3C//DTD SVG 1.1//EN" "http://www.w3.org/Graphics/SVG/1.1/DTD/svg11.dtd">
<svg version="1.1" id="x" xmlns="http://www.w3.org/2000/svg" xmlns:xlink="http://www.w3.org/1999/xlink" x="0px" y="0px"
	 width="638.968px" height="400px" viewBox="0 0 638.968 400" enable-background="new 0 0 638.968 400" xml:space="preserve">
<g>
	<path d="M95.211,220.063l-22.967,69.556H42.716l75.462-221.135H152.3l75.462,221.135h-30.514l-23.622-69.556H95.211z
		 M168.048,197.753l-21.982-63.65c-4.921-14.437-8.202-27.56-11.483-40.356h-0.655c-3.281,12.796-6.562,26.576-11.155,40.028
		l-21.654,63.979H168.048z"/>
</g>
<polygon fill-rule="evenodd" clip-rule="evenodd" fill="#0099FF" points="377.017,243.374 403.953,212.71 377.017,178.987 
	377.017,195.083 307.224,187.812 307.224,226.62 377.017,227.276 "/>
<polygon fill-rule="evenodd" clip-rule="evenodd" points="262.762,127.417 304.736,182.154 357.617,100.63 345.458,88.754 
	415.223,47.221 398.407,140.479 384.031,126.432 325.287,208.957 384.031,285.57 398.407,270.076 415.223,361.642 345.458,327.127 
	357.617,314.029 304.736,237.827 262.762,296.791 270.802,311.008 233.131,315.478 240.592,257.587 247.677,270.118 
	286.068,210.931 247.677,155.609 240.592,168.849 233.131,111.712 270.802,112.39 "/>
<polygon fill-rule="evenodd" clip-rule="evenodd" fill="#0099FF" points="216,178.308 216,154.581 143.174,197.899 216,249.491 
	216,225.764 307.224,226.62 322.014,208 307.224,187.812 "/>
<g>
	<path d="M468.243,86.201c0,9.843-6.891,17.717-18.375,17.717c-10.498,0-17.389-7.874-17.389-17.717s7.219-18.045,18.045-18.045
		C461.024,68.155,468.243,76.03,468.243,86.201z M436.088,289.619V130.821h28.873v158.798H436.088z"/>
	<path d="M508.922,260.419c8.857,5.249,23.951,11.155,38.387,11.155c20.67,0,30.514-10.172,30.514-23.623
		c0-13.779-8.203-20.998-29.201-28.873c-28.873-10.498-42.324-25.919-42.324-44.948c0-25.591,20.998-46.589,54.791-46.589
		c16.078,0,30.186,4.265,38.715,9.843l-6.889,20.998c-6.234-3.937-17.717-9.515-32.482-9.515c-17.061,0-26.246,9.843-26.246,21.654
		c0,13.124,9.186,19.029,29.855,27.232c27.232,10.171,41.668,23.95,41.668,47.573c0,28.217-21.982,47.902-59.057,47.902
		c-17.389,0-33.465-4.594-44.621-11.156L508.922,260.419z"/>
</g>
</svg>
